<?xml version="1.0" standalone="no"?>
<!DOCTYPE svg PUBLIC "-//W3C//DTD SVG 20010904//EN"
 "http://www.w3.org/TR/2001/REC-SVG-20010904/DTD/svg10.dtd">
<svg version="1.0" xmlns="http://www.w3.org/2000/svg"
 width="330.000000pt" height="330.000000pt" viewBox="0 0 330.000000 330.000000"
 preserveAspectRatio="xMidYMid meet">

<g transform="translate(0.000000,330.000000) scale(0.100000,-0.100000)"
fill="#000000" stroke="none">
<path d="M1631 3203 c-1 -9 -19 -13 -58 -13 -31 0 -54 -2 -52 -4 8 -8 158 -11
165 -3 4 4 -4 7 -18 7 -15 0 -29 6 -31 13 -4 10 -6 10 -6 0z"/>
<path d="M1442 3188 c3 -7 18 -14 34 -15 16 -1 21 1 12 3 -10 3 -18 10 -18 15
0 5 -7 9 -16 9 -9 0 -14 -6 -12 -12z"/>
<path d="M1265 3151 c-17 -22 -36 -41 -42 -41 -7 0 -13 -4 -13 -10 0 -5 -17
-10 -37 -11 -21 0 -47 -4 -58 -9 -21 -10 -21 -10 97 5 25 3 52 13 59 22 7 8
24 19 37 24 17 6 22 15 20 31 -5 37 -31 32 -63 -11z"/>
<path d="M1380 3180 c-11 -7 -12 -12 -3 -21 13 -13 33 -4 33 17 0 16 -9 18
-30 4z"/>
<path d="M1190 3146 c0 -2 11 -6 25 -8 14 -3 25 -1 25 3 0 5 -11 9 -25 9 -14
0 -25 -2 -25 -4z"/>
<path d="M1148 3133 c7 -3 16 -2 19 1 4 3 -2 6 -13 5 -11 0 -14 -3 -6 -6z"/>
<path d="M1018 3075 c-16 -13 -28 -29 -28 -35 0 -5 -15 -10 -32 -11 -31 -1
-32 -1 -8 -9 24 -8 24 -8 -7 -11 -18 -1 -46 -3 -61 -4 -45 -3 -148 -67 -137
-85 3 -5 0 -12 -6 -16 -8 -4 -9 -3 -5 4 18 30 -15 6 -69 -48 -46 -47 -64 -59
-80 -54 -11 4 -23 11 -26 17 -7 10 -69 -30 -69 -44 0 -4 8 -10 18 -13 18 -6
52 -55 52 -75 0 -6 -12 -11 -27 -11 -60 0 -164 -94 -224 -201 -18 -34 -42 -70
-52 -80 -9 -11 -14 -19 -10 -19 3 0 -3 -10 -14 -22 -49 -54 -74 -142 -79 -273
-3 -55 -5 -118 -7 -140 -1 -29 3 -45 18 -58 14 -13 16 -20 8 -24 -18 -7 -16
-33 2 -33 12 0 15 13 15 58 0 78 16 133 38 130 10 -2 18 6 22 22 3 14 16 47
28 73 25 56 27 64 10 70 -18 6 9 37 32 37 23 0 52 45 47 73 -4 22 -4 22 -6 -1
-1 -14 -10 -26 -27 -33 -35 -13 -37 -9 -12 29 38 61 76 31 63 -48 -6 -36 -5
-40 13 -40 11 0 34 12 51 26 29 24 31 30 31 95 0 55 3 69 15 69 8 0 15 6 15
13 0 8 18 28 40 46 86 69 131 172 111 249 -8 28 -16 39 -25 36 -7 -3 -16 2
-20 12 -4 12 -2 15 9 10 8 -3 15 -2 15 2 0 12 48 13 55 1 9 -14 19 -87 18
-131 -1 -49 -39 -112 -102 -171 -46 -43 -61 -52 -83 -48 -5 0 -8 -4 -8 -9 0
-13 27 -13 35 0 4 6 12 7 18 3 7 -4 14 -8 17 -8 3 0 41 -17 84 -38 44 -21 149
-61 235 -89 204 -67 248 -85 233 -100 -8 -8 -12 -50 -12 -114 0 -137 -6 -164
-36 -164 -14 0 -32 -4 -42 -8 -111 -54 -177 -91 -192 -110 -19 -24 -18 -36 11
-108 15 -37 5 -88 -16 -81 -7 3 -20 -5 -29 -18 -9 -13 -34 -41 -57 -62 -52
-48 -93 -127 -74 -143 10 -8 24 -8 52 -1 60 17 90 14 96 -10 7 -26 -11 -33
-48 -19 -36 14 -46 4 -11 -11 25 -12 25 -13 10 -31 -23 -24 -38 -23 -53 4 -11
23 -11 23 -5 -2 4 -14 6 -40 6 -57 -1 -35 22 -45 47 -21 10 11 11 3 5 -40 -6
-48 -5 -52 12 -46 16 6 17 5 7 -7 -7 -7 -13 -35 -13 -61 0 -36 -5 -53 -20 -65
-14 -12 -16 -20 -9 -30 6 -7 15 -11 19 -8 5 3 12 -9 15 -27 11 -50 37 -83 61
-80 15 2 23 -3 27 -17 3 -13 23 -29 51 -41 28 -12 46 -26 46 -36 0 -11 5 -14
16 -10 8 3 24 1 35 -4 28 -16 106 -90 93 -90 -6 0 -21 12 -35 26 -38 41 -121
77 -89 39 23 -28 -7 -15 -56 24 -27 21 -58 40 -69 42 -11 2 -25 15 -32 29 -13
25 -13 25 -13 2 0 -12 7 -25 15 -28 8 -4 15 -16 15 -28 0 -12 21 -41 51 -71
l52 -49 -27 -9 c-67 -22 -1 -87 198 -196 60 -33 86 -34 86 -6 0 14 5 12 29 -7
17 -13 30 -26 30 -31 2 -19 47 -75 61 -74 8 0 29 -3 45 -7 l30 -7 -22 20 c-12
12 -28 21 -34 21 -7 0 -10 3 -6 6 3 3 -5 18 -18 32 -65 75 -165 209 -165 222
0 9 13 1 31 -20 260 -301 327 -370 363 -370 17 0 26 5 24 12 -10 28 15 34 40
9 20 -20 22 -28 13 -47 -12 -27 -45 -31 -121 -13 -25 6 -58 11 -75 13 -16 1
-35 5 -41 8 -11 7 -24 1 -24 -11 0 -6 36 -12 88 -15 12 0 25 -9 28 -18 3 -11
15 -18 30 -18 13 0 24 -4 24 -10 0 -5 12 -9 28 -9 16 1 20 3 10 6 -22 5 -24
33 -3 33 8 0 17 -11 21 -24 4 -19 12 -24 33 -24 15 1 38 -5 51 -12 33 -18 185
-24 240 -10 25 6 53 11 62 11 9 0 19 7 22 15 3 8 16 14 29 14 66 0 240 83 287
137 41 47 89 44 108 -6 l8 -23 31 26 c30 25 31 28 18 53 -14 27 -14 28 38 57
101 56 230 156 225 174 -1 4 6 29 16 55 15 38 25 49 47 54 19 4 26 10 22 20
-5 12 -1 14 14 9 39 -12 166 157 150 198 -3 8 5 18 19 25 27 12 31 33 9 51
-12 10 -18 10 -30 0 -8 -7 -15 -18 -15 -26 0 -7 -9 -16 -20 -19 -27 -9 -46
-43 -31 -58 8 -8 11 -7 11 5 0 8 6 20 13 26 20 17 20 -38 -1 -69 -22 -34 -90
-109 -98 -109 -4 0 1 12 11 26 11 17 12 24 4 18 -8 -4 -25 -7 -39 -6 -35 4
-80 -33 -80 -64 0 -20 -4 -23 -23 -19 -15 4 -32 -1 -49 -14 -14 -12 -38 -21
-53 -21 -27 0 -46 -16 -122 -104 -26 -30 -35 -35 -55 -28 -13 5 -42 10 -64 10
-23 1 -52 6 -65 12 -18 8 -3 9 58 4 67 -4 88 -2 111 11 32 20 52 69 57 141 1
28 13 79 25 113 12 35 20 76 18 91 -4 24 0 30 19 35 15 3 30 19 39 41 8 20 19
41 25 48 5 6 27 39 49 73 26 41 44 61 53 57 8 -3 17 2 20 10 4 9 18 16 31 16
15 0 30 8 36 19 10 20 63 51 87 51 7 0 13 4 13 9 0 4 27 27 60 50 33 23 60 43
60 45 0 1 -23 -2 -50 -8 -36 -7 -53 -7 -61 1 -9 9 -26 7 -68 -8 -31 -11 -64
-24 -73 -30 -21 -11 -22 -6 -8 22 6 10 20 19 31 19 11 0 27 7 35 15 9 8 24 15
34 15 10 0 22 4 25 10 3 5 15 10 26 10 10 0 40 11 67 24 26 13 62 30 80 36 18
7 30 15 28 18 -5 4 -117 13 -178 13 -31 0 -34 6 -13 33 8 10 12 22 10 26 -3 5
9 13 25 19 17 5 30 12 30 15 0 4 -37 4 -81 2 l-82 -4 7 94 c4 62 3 94 -4 94
-5 0 -10 -11 -10 -24 0 -14 -4 -28 -10 -31 -5 -3 -10 -15 -10 -25 0 -10 -10
-30 -23 -44 l-23 -25 2 89 c2 57 8 99 18 119 9 16 16 35 16 42 0 20 -48 -35
-55 -64 -4 -15 -15 -32 -25 -37 -10 -5 -22 -24 -25 -42 -12 -53 -44 -108 -63
-108 -23 0 -77 -36 -78 -52 -3 -33 -5 -38 -14 -38 -17 0 -11 33 16 101 22 53
25 74 20 121 -5 47 -2 65 14 93 26 46 3 48 -25 2 -51 -81 -68 -115 -85 -169
-6 -21 -25 -48 -41 -62 -22 -19 -29 -33 -29 -60 0 -20 -4 -36 -10 -36 -5 0
-10 -7 -10 -15 0 -28 -18 -15 -25 18 -4 17 -11 37 -16 43 -6 7 -5 22 1 38 12
33 13 76 1 76 -9 0 -21 -48 -21 -89 0 -14 -9 -43 -20 -64 -11 -20 -20 -48 -20
-61 0 -35 -10 -56 -26 -56 -18 0 -28 -43 -15 -68 6 -11 10 -70 9 -131 0 -75 3
-116 12 -126 10 -12 10 -20 -1 -43 -16 -32 -91 -132 -99 -132 -3 0 -15 29 -28
64 -19 51 -21 68 -12 88 10 22 8 28 -18 55 -29 28 -30 32 -19 71 10 39 9 44
-22 87 l-33 46 31 40 c25 30 30 45 25 62 -8 22 -8 22 -14 -3 -3 -14 -18 -31
-35 -39 -41 -19 -75 -51 -75 -71 0 -16 -79 -129 -91 -130 -3 0 -14 8 -25 19
-15 14 -42 20 -110 24 -49 3 -123 11 -164 17 -92 13 -186 38 -150 39 14 1 32
6 40 11 11 7 6 10 -20 10 -19 0 -45 3 -57 6 -17 5 -23 2 -23 -9 0 -17 -20 -27
-54 -27 -17 0 -29 16 -59 75 -26 53 -42 75 -55 75 -23 0 -118 -32 -161 -55
-18 -9 -35 -14 -39 -11 -3 3 51 33 119 66 68 32 121 60 117 60 -22 1 -234 -93
-260 -115 -16 -14 -37 -25 -47 -25 -9 0 -23 -6 -29 -12 -10 -10 -15 -10 -22 2
-7 11 -3 21 18 37 15 13 27 27 27 32 0 5 4 13 9 18 5 5 6 3 2 -4 -11 -20 9
-15 29 7 10 12 24 19 31 16 8 -3 11 1 7 10 -3 7 -9 14 -14 14 -18 0 -134 -52
-151 -68 -16 -14 -18 -14 -18 3 0 16 -7 17 -76 11 -61 -6 -74 -4 -68 6 21 36
104 136 142 171 49 46 54 78 23 147 -11 24 -17 48 -15 54 2 6 23 23 47 36 41
25 44 25 122 13 44 -7 98 -15 120 -18 21 -3 120 -16 220 -29 99 -14 218 -28
265 -32 47 -3 91 -11 98 -17 10 -8 16 -7 22 2 5 9 13 10 21 5 8 -5 51 -7 97
-6 74 3 87 1 118 -20 29 -19 34 -27 29 -48 -3 -14 -9 -38 -12 -53 -3 -16 -12
-31 -19 -34 -8 -3 -14 -14 -14 -26 0 -20 0 -20 -21 -1 -19 18 -22 18 -33 2 -9
-13 -16 -14 -24 -6 -8 8 -15 8 -27 -2 -17 -14 -20 -46 -5 -55 6 -3 10 -17 10
-30 0 -33 -33 -22 -83 28 l-39 39 4 -56 c1 -31 0 -56 -4 -56 -4 0 -29 22 -57
50 -45 45 -50 48 -53 27 -3 -21 -4 -20 -21 8 l-18 30 4 -38 c2 -30 1 -35 -10
-25 -7 7 -19 31 -28 53 -12 31 -14 33 -9 10 11 -59 64 -124 64 -79 0 16 1 16
14 -1 12 -16 16 -17 30 -6 13 11 21 8 53 -18 21 -17 41 -31 45 -31 5 0 8 18 8
40 l0 39 36 -24 c46 -31 84 -33 84 -5 0 22 7 25 30 10 9 -5 19 -5 26 1 7 6 16
4 24 -6 16 -19 30 -10 30 18 l0 21 16 -22 16 -23 18 21 18 21 7 -20 c3 -12 10
-21 15 -21 10 0 0 37 -29 103 -12 28 -21 70 -21 98 0 41 -4 51 -25 65 -14 9
-23 19 -20 22 7 7 -94 49 -180 76 l-70 21 7 40 c4 22 7 80 7 129 l1 89 43 -7
c23 -4 56 -11 72 -16 166 -53 391 -85 431 -62 18 11 18 11 -2 12 -12 0 -24 6
-27 14 -3 8 -30 22 -59 31 -62 20 -438 203 -438 213 0 4 20 106 45 227 25 120
45 225 45 231 0 17 -94 60 -170 77 -147 34 -430 47 -471 21 -7 -4 -32 -7 -56
-5 -37 2 -43 0 -48 -21 -8 -34 -24 -370 -18 -385 7 -17 -11 -17 -174 7 -97 15
-171 19 -250 17 -62 -2 -113 -2 -113 0 0 2 11 8 25 13 28 11 79 76 105 135 10
22 21 74 25 115 8 83 5 80 113 120 35 14 72 53 72 77 0 9 11 24 25 35 14 11
25 28 25 39 0 15 7 19 35 19 30 0 71 27 76 49 9 38 5 51 -12 46 -65 -18 -66
-18 -36 9 15 14 24 26 20 26 -4 0 -20 -12 -35 -25z m42 -65 c-12 -23 -40 -34
-54 -20 -6 6 -7 10 0 10 6 0 19 7 30 16 10 8 13 12 5 8 -9 -4 -12 -3 -7 4 4 6
13 9 21 6 11 -4 12 -11 5 -24z m-83 -26 c-3 -3 -12 -4 -19 -1 -8 3 -5 6 6 6
11 1 17 -2 13 -5z m-133 -26 c-5 -8 0 -9 17 -4 13 4 41 10 62 13 33 5 37 3 37
-15 0 -30 -34 -47 -51 -26 -8 10 -23 14 -41 12 -15 -3 -28 -1 -28 4 0 5 -10 7
-22 3 -21 -5 -21 -5 2 9 31 19 33 19 24 4z m-45 -58 c-11 -30 -29 -41 -29 -18
0 10 28 48 36 48 2 0 -2 -13 -7 -30z m107 -5 c4 -25 -19 -61 -48 -76 -23 -12
-23 -12 -4 9 23 26 15 49 -19 58 -21 5 -23 9 -14 21 19 22 81 13 85 -12z
m-191 -5 c-3 -5 0 -10 8 -10 8 0 22 -9 33 -21 18 -20 18 -21 -1 -35 -16 -12
-17 -16 -6 -23 20 -13 3 -33 -21 -25 -17 5 -18 3 -9 -14 20 -37 11 -48 -10
-13 -20 33 -20 35 -3 48 10 7 15 13 11 13 -11 0 -51 -23 -60 -35 -5 -5 -6 1
-2 15 6 24 5 24 -9 6 -9 -11 -18 -17 -22 -14 -3 3 9 22 27 42 l32 37 26 -23
c20 -18 22 -18 9 -3 -9 11 -15 29 -13 40 5 26 4 25 11 25 3 0 2 -4 -1 -10z
m135 -33 c0 -15 -20 -37 -34 -37 -6 0 -5 5 2 12 17 17 15 31 -3 24 -8 -3 -15
-1 -15 4 0 6 11 10 25 10 14 0 25 -6 25 -13z m-275 -79 c81 -64 69 -213 -22
-269 -18 -12 -31 -24 -28 -29 3 -4 -11 -15 -31 -25 -28 -13 -38 -14 -50 -5
-21 18 -18 26 16 40 35 15 92 66 109 97 25 48 6 138 -37 177 -41 36 -2 50 43
14z m-11 -117 c12 -18 -7 -41 -32 -41 -35 0 -165 -132 -193 -195 -19 -42 -43
-57 -62 -39 -22 22 127 222 198 266 32 19 80 24 89 9z m-14 -62 c0 -5 -4 -8
-9 -5 -5 4 -22 2 -38 -4 -26 -9 -27 -9 -9 5 23 17 56 20 56 4z m-20 -39 c0
-13 -71 -60 -90 -60 -9 0 -1 14 22 35 36 34 68 45 68 25z m30 -90 c-14 -11
-29 -20 -35 -20 -5 0 4 9 20 20 38 25 48 25 15 0z m-140 -30 c0 -22 4 -28 15
-24 8 4 15 5 15 3 0 -2 4 -19 9 -36 l10 -33 -30 16 c-34 17 -91 10 -111 -14
-11 -13 -10 -14 9 -4 42 23 37 12 -15 -34 -34 -30 -49 -49 -42 -54 8 -5 4 -18
-14 -44 -34 -50 -59 -131 -52 -164 4 -17 3 -22 -2 -14 -7 10 -11 5 -15 -18 -5
-21 -11 -29 -19 -24 -10 6 -11 4 -1 -7 17 -18 16 -29 -2 -29 -9 0 -15 9 -15
25 0 14 4 25 9 25 4 0 6 36 4 81 -2 56 2 100 13 141 16 56 19 59 43 55 23 -5
24 -4 8 8 -16 11 -16 16 -5 34 7 12 23 21 38 21 29 0 96 61 83 75 -5 4 -3 5 4
2 15 -9 45 2 37 14 -6 11 4 29 17 29 5 0 9 -13 9 -30z m80 -30 c0 -5 -5 -10
-11 -10 -5 0 -7 5 -4 10 3 6 8 10 11 10 2 0 4 -4 4 -10z m-200 -46 c0 -2 -9
-4 -20 -4 -11 0 -20 4 -20 9 0 5 9 7 20 4 11 -3 20 -7 20 -9z m148 -16 c7 -7
12 -21 11 -32 0 -15 -2 -17 -6 -6 -3 8 -12 23 -21 33 -17 19 -3 24 16 5z m-28
-8 c15 -8 19 -19 16 -48 -4 -44 -14 -72 -28 -72 -5 0 -6 15 -2 35 4 25 1 43
-10 60 -9 13 -16 27 -16 30 0 8 20 6 40 -5z m43 -75 c-3 -9 -8 -14 -10 -11 -3
3 -2 9 2 15 9 16 15 13 8 -4z m-181 -117 c-7 -7 -12 -8 -12 -2 0 14 12 26 19
19 2 -3 -1 -11 -7 -17z m1285 -61 c64 -34 84 -156 36 -220 -34 -44 -113 -73
-171 -62 -47 9 -114 63 -136 110 -29 61 6 175 54 175 11 0 20 4 20 10 0 16
162 5 197 -13z m-1387 -167 c0 -11 -4 -20 -10 -20 -5 0 -10 9 -10 20 0 11 5
20 10 20 6 0 10 -9 10 -20z m948 -89 c4 -24 3 -24 -59 -18 -34 4 -71 7 -83 8
-15 0 -10 6 19 20 24 11 56 18 80 16 34 -2 41 -6 43 -26z m755 -90 l32 -21
-28 0 c-15 0 -30 7 -33 15 -7 17 -64 21 -64 5 0 -5 -9 -10 -20 -10 -15 0 -20
7 -20 29 l0 29 50 -13 c28 -7 65 -23 83 -34z m710 -81 c-3 -19 -14 -47 -24
-62 -11 -14 -19 -39 -19 -55 0 -18 -9 -38 -21 -49 -17 -15 -20 -27 -16 -59 6
-40 38 -79 61 -73 6 2 31 44 56 93 25 50 55 104 68 122 12 17 31 50 41 73 l19
42 11 -34 c9 -29 7 -47 -14 -118 -14 -46 -31 -90 -39 -99 -19 -21 -33 -59 -41
-110 -6 -38 -4 -42 21 -51 15 -6 28 -9 29 -8 1 2 12 18 25 36 13 20 24 52 26
78 1 25 9 64 17 87 9 23 21 63 27 90 7 26 16 47 21 47 17 0 21 -50 9 -100 -7
-28 -9 -62 -6 -75 5 -20 3 -25 -11 -25 -12 0 -14 -3 -6 -8 15 -9 1 -82 -27
-140 -11 -23 -23 -57 -27 -75 -6 -35 -33 -87 -44 -87 -4 0 -16 -15 -26 -32
-11 -18 -34 -58 -52 -88 l-33 -56 -56 2 c-47 1 -67 7 -114 38 -31 20 -61 36
-67 36 -5 0 -19 16 -31 37 -17 30 -22 56 -25 149 -2 63 -9 122 -14 133 -8 14
-6 24 9 41 11 13 20 30 21 39 1 36 10 67 23 79 11 11 15 6 25 -33 7 -29 8 -52
2 -63 -6 -10 -6 -23 0 -34 6 -12 6 -18 -1 -18 -6 0 -9 -23 -9 -53 1 -30 -4
-63 -10 -75 -7 -13 -7 -23 -2 -27 10 -6 31 24 31 44 0 5 5 22 12 38 6 15 12
44 12 63 1 20 6 34 12 33 11 -2 34 116 34 176 0 16 7 31 15 34 15 6 55 78 55
99 0 8 10 26 22 41 20 25 23 26 29 10 4 -10 5 -34 2 -53z m61 -112 c-8 -29
-62 -130 -76 -143 -7 -7 -9 0 -4 24 5 30 4 33 -14 28 -12 -3 -20 0 -20 8 0 7
15 16 34 19 34 6 59 26 55 42 -3 14 12 44 23 44 5 0 6 -10 2 -22z m313 -19
c13 -13 6 -39 -10 -39 -6 0 -19 -8 -30 -17 -11 -10 -17 -13 -14 -6 8 14 -21
46 -34 38 -10 -7 -12 18 -2 28 11 11 78 8 90 -4z m-937 -33 c0 -7 7 -19 15
-26 9 -7 13 -15 10 -18 -7 -8 -45 29 -45 45 0 7 5 13 10 13 6 0 10 -6 10 -14z
m734 -50 c-3 -20 -15 -41 -25 -47 -25 -13 -24 2 1 34 11 14 20 33 20 43 0 9 3
15 6 12 3 -3 2 -22 -2 -42z m-321 -8 c-6 -7 -13 -22 -16 -33 -4 -16 -5 -15 -6
6 0 14 4 30 11 37 15 15 24 7 11 -10z m477 2 c-8 -5 -11 -12 -7 -17 4 -4 17
-1 29 6 21 13 95 18 106 6 12 -12 -16 -39 -49 -47 -19 -5 -43 -13 -54 -18 -49
-22 -65 -22 -65 -1 0 11 -4 23 -10 26 -5 3 -10 15 -10 25 0 17 16 25 60 28 13
2 13 1 0 -8z m-2072 -148 c-6 -16 -89 -85 -94 -79 -9 8 66 87 83 87 8 0 13 -4
11 -8z m2152 2 c0 -31 -60 -74 -93 -66 -10 2 -16 0 -15 -5 4 -13 -50 -66 -60
-59 -5 3 -7 17 -4 31 2 14 -1 32 -8 40 -10 12 -10 15 3 15 8 0 20 7 27 15 7 9
18 14 24 12 6 -2 22 2 36 10 25 13 90 18 90 7z m-2005 -24 c-3 -5 -12 -10 -18
-10 -7 0 -6 4 3 10 19 12 23 12 15 0z m-51 -25 c-6 -16 -44 -41 -44 -30 0 4 5
15 10 26 13 23 42 26 34 4z m464 -86 c19 -33 55 -83 82 -110 46 -47 48 -51 39
-86 -4 -21 -6 -48 -3 -59 3 -12 1 -25 -4 -28 -6 -4 21 -61 64 -135 41 -71 74
-132 74 -135 0 -25 -30 13 -104 134 -87 140 -87 140 -71 170 12 23 13 35 5 51
-6 11 -10 30 -8 43 2 15 -9 37 -31 61 -33 38 -101 138 -101 150 0 3 6 5 13 5
6 0 27 -28 45 -61z m-524 -33 c-14 -32 -28 -55 -30 -53 -6 5 25 87 39 105 20
26 16 3 -9 -52z m1190 -91 c21 -75 37 -137 34 -140 -4 -4 -98 264 -98 279 0 3
6 3 13 1 6 -3 30 -66 51 -140z m-665 47 c34 -54 39 -71 15 -51 -14 11 -54 81
-54 94 0 13 10 2 39 -43z m-549 -82 c22 0 60 -50 60 -79 0 -25 -20 -29 -20 -3
-1 21 -26 53 -63 77 -21 13 -25 20 -15 26 8 6 14 3 16 -6 2 -8 12 -15 22 -15z
m125 -30 c-4 -12 -9 -19 -12 -17 -3 3 -2 15 2 27 4 12 9 19 12 17 3 -3 2 -15
-2 -27z m1495 -46 c0 -8 -6 -11 -15 -8 -8 4 -15 12 -15 20 0 8 6 11 15 8 8 -4
15 -12 15 -20z m-1512 -105 c31 -12 62 -38 62 -51 0 -5 -12 0 -26 11 -14 11
-41 25 -60 31 -37 13 -41 24 -21 67 l12 28 3 -38 c3 -31 9 -40 30 -48z m1520
19 c-8 -13 -18 -34 -21 -48 -3 -14 -15 -34 -25 -45 -10 -11 -35 -46 -55 -78
-20 -31 -41 -57 -47 -57 -16 0 -11 12 18 51 15 20 42 55 60 79 17 24 32 50 32
58 0 14 37 62 48 62 2 0 -2 -10 -10 -22z m-324 -13 c-4 -8 -10 -15 -15 -15 -4
0 -6 7 -3 15 4 8 10 15 15 15 4 0 6 -7 3 -15z m-79 -71 c-92 -80 -124 -97
-199 -104 -39 -4 -90 -14 -113 -23 -30 -10 -43 -11 -43 -3 0 16 79 46 123 46
60 0 127 27 197 79 73 54 95 58 35 5z m762 -44 c1 -14 -4 -20 -15 -18 -10 2
-24 -12 -39 -37 -12 -22 -23 -32 -23 -23 0 9 5 20 11 23 6 4 8 13 5 21 -6 16
27 54 47 54 7 0 13 -9 14 -20z m-22 -40 c3 -5 1 -10 -4 -10 -6 0 -11 5 -11 10
0 6 2 10 4 10 3 0 8 -4 11 -10z m-67 -42 c2 -10 -8 -34 -22 -55 -15 -22 -22
-40 -16 -43 6 -4 2 -14 -10 -25 -21 -19 -29 -8 -8 13 9 9 9 12 1 12 -9 0 -9 8
-1 31 8 22 7 34 -1 42 -8 8 -6 16 6 29 20 22 46 20 51 -4z m-94 -33 c-4 -8 -1
-15 5 -15 6 0 11 5 11 10 0 6 5 10 11 10 15 0 2 -50 -18 -72 -20 -22 -39 -23
-47 -2 -4 10 -12 14 -22 10 -25 -10 -37 4 -17 20 17 13 17 14 -2 8 -16 -5 -14
-1 8 20 31 29 80 36 71 11z m-967 -50 c-26 -25 -47 -50 -47 -56 0 -7 -3 -10
-6 -7 -10 11 16 52 54 85 54 47 53 30 -1 -22z m-588 -34 c30 -20 49 -27 56
-21 8 7 19 2 35 -15 35 -37 30 -36 -92 25 -37 18 -80 44 -95 57 l-28 24 40
-20 c22 -11 60 -33 84 -50z m46 61 c14 -10 65 -79 65 -88 0 -10 -28 16 -61 58
-28 34 -30 49 -4 30z m-30 -12 c3 -5 2 -10 -4 -10 -5 0 -13 5 -16 10 -3 6 -2
10 4 10 5 0 13 -4 16 -10z m1151 -28 c-9 -17 -21 -34 -27 -38 -7 -4 -2 12 11
34 27 47 40 50 16 4z m-634 -14 c-7 -7 -12 -8 -12 -2 0 14 12 26 19 19 2 -3
-1 -11 -7 -17z m978 2 c0 -5 -5 -10 -11 -10 -5 0 -7 5 -4 10 3 6 8 10 11 10 2
0 4 -4 4 -10z m60 -19 c0 -14 -58 -32 -65 -20 -6 9 2 14 40 22 11 3 21 5 23 6
1 0 2 -3 2 -8z m-450 -10 c0 -5 -13 -14 -29 -21 -16 -6 -37 -20 -47 -31 -18
-20 -34 -25 -34 -10 0 10 88 71 102 71 4 0 8 -4 8 -9z m157 -6 c41 -12 56 -23
73 -52 13 -22 18 -39 12 -41 -6 -2 -8 -11 -5 -20 6 -15 5 -15 -10 -3 -9 7 -14
17 -12 22 10 15 -43 40 -97 46 -40 4 -67 0 -110 -17 -32 -12 -61 -26 -64 -32
-5 -7 -2 -8 7 -3 8 5 6 -1 -5 -13 -10 -12 -26 -21 -35 -20 -39 3 -61 -3 -61
-17 0 -16 -12 -20 -23 -9 -11 12 36 84 54 84 10 0 40 14 67 31 39 24 111 52
153 58 3 1 28 -6 56 -14z m158 -5 c-3 -5 -2 -10 4 -10 5 0 13 5 16 10 11 18
24 11 40 -21 14 -26 18 -29 33 -17 13 9 12 7 -2 -9 -10 -13 -22 -21 -26 -18
-4 2 -16 -2 -26 -10 -30 -22 -53 -18 -60 11 -6 22 -8 24 -16 10 -5 -9 -12 -16
-16 -16 -8 0 -42 53 -42 64 0 12 24 6 43 -11 18 -16 20 -16 14 -1 -3 9 -3 19
0 22 11 10 45 7 38 -4z m-150 -89 c70 -32 113 -103 80 -131 -9 -8 -15 -8 -15
-2 0 18 -50 70 -82 87 -65 32 -151 7 -205 -60 -25 -32 -29 -33 -45 -18 -17 15
-17 17 3 44 10 15 32 34 47 42 15 8 45 24 67 36 48 26 97 26 150 2z m-1060
-21 c3 -5 1 -10 -4 -10 -6 0 -11 5 -11 10 0 6 2 10 4 10 3 0 8 -4 11 -10z
m778 -45 c4 -8 1 -17 -5 -21 -7 -4 -8 -3 -4 4 4 7 2 12 -3 12 -6 0 -11 5 -11
10 0 15 17 12 23 -5z m241 -8 c-19 -63 -71 -103 -206 -156 -90 -36 -128 -40
-128 -12 0 20 18 31 54 31 49 0 236 106 236 133 0 7 -9 1 -20 -13 -22 -28 -25
-23 -9 13 8 18 19 24 45 25 32 1 35 -1 28 -21z m-96 -4 c-3 -19 -86 -79 -95
-69 -8 7 71 86 87 86 6 0 10 -8 8 -17z m-181 -8 c13 -9 20 -22 17 -30 -4 -8
-1 -15 6 -15 6 0 8 -4 5 -10 -3 -5 0 -7 8 -4 8 3 18 1 22 -5 3 -6 0 -12 -7
-13 -7 0 -17 -2 -23 -2 -5 -1 -16 -5 -24 -10 -11 -7 -11 -10 0 -18 11 -8 10
-9 -3 -4 -10 3 -37 -6 -60 -20 -24 -14 -35 -23 -25 -20 12 4 17 0 17 -15 0
-12 -5 -19 -12 -17 -7 3 -19 -1 -26 -9 -19 -19 -52 -16 -53 5 -1 11 -4 8 -8
-8 -7 -24 -9 -25 -96 -24 -54 1 -90 5 -93 12 -2 6 -25 16 -53 23 -27 7 -49 16
-49 20 0 4 42 8 93 8 59 -1 108 5 136 15 51 19 54 19 46 6 -3 -5 -3 -10 0 -10
13 0 71 33 92 52 12 11 26 17 31 14 11 -6 22 16 22 42 -1 14 -4 13 -19 -5 -22
-26 -31 -29 -31 -10 0 15 36 48 44 40 3 -4 6 1 6 10 0 21 9 21 37 2z m-97 -69
c0 -18 -66 -60 -81 -51 -14 9 31 57 48 51 7 -3 15 -1 18 4 9 14 15 12 15 -4z
m-280 -31 c11 -13 10 -14 -4 -9 -9 3 -16 10 -16 15 0 13 6 11 20 -6z m91 6
c-12 -8 -12 -10 0 -14 8 -2 5 -3 -6 -1 -11 2 -30 4 -43 4 -13 0 -20 4 -17 10
3 6 23 10 43 10 25 0 33 -3 23 -9z m70 -11 c-27 -23 -42 -26 -38 -7 3 17 18
27 42 27 19 -1 19 -2 -4 -20z m-296 -50 c4 -6 -5 -10 -19 -10 -14 0 -26 5 -26
10 0 6 9 10 19 10 11 0 23 -4 26 -10z"/>
<path d="M270 2320 c-6 -11 -8 -20 -6 -20 3 0 10 9 16 20 6 11 8 20 6 20 -3 0
-10 -9 -16 -20z"/>
<path d="M1440 2043 c-36 -13 -60 -47 -60 -84 0 -30 7 -43 34 -67 32 -28 38
-30 71 -19 58 17 80 78 50 136 -19 38 -52 50 -95 34z m72 -30 c27 -24 24 -87
-4 -107 -49 -35 -108 -7 -108 49 0 19 8 44 17 55 21 24 69 26 95 3z"/>
<path d="M1442 1978 c-8 -8 -9 -15 -1 -25 15 -17 25 -17 32 1 8 21 -16 39 -31
24z"/>
<path d="M2483 1326 c10 -20 17 -23 50 -18 29 4 43 0 60 -15 12 -11 35 -24 51
-27 17 -4 43 -17 58 -28 16 -11 31 -18 34 -15 7 6 -71 52 -104 62 -13 4 -33
16 -44 27 -15 15 -28 18 -53 14 -24 -5 -34 -3 -39 9 -3 8 -10 15 -15 15 -5 0
-4 -10 2 -24z"/>
<path d="M2460 1245 c0 -8 5 -15 10 -15 6 0 10 7 10 15 0 8 -4 15 -10 15 -5 0
-10 -7 -10 -15z"/>
<path d="M2524 1146 c-26 -53 -44 -99 -41 -102 3 -3 26 38 53 90 26 53 44 99
41 103 -4 3 -28 -38 -53 -91z"/>
<path d="M2686 1171 c-11 -17 -27 -66 -19 -56 12 13 34 65 28 65 -2 0 -6 -4
-9 -9z"/>
<path d="M2390 1124 c0 -8 5 -12 10 -9 6 4 8 11 5 16 -9 14 -15 11 -15 -7z"/>
<path d="M2616 572 c6 -4 14 -14 17 -22 4 -10 6 -8 6 8 1 15 -5 22 -16 22 -11
0 -14 -3 -7 -8z"/>
<path d="M2095 379 c-4 -6 -5 -12 -2 -15 2 -3 7 2 10 11 7 17 1 20 -8 4z"/>
<path d="M2140 369 c0 -5 5 -7 10 -4 6 3 10 8 10 11 0 2 -4 4 -10 4 -5 0 -10
-5 -10 -11z"/>
<path d="M2460 466 c0 -2 8 -10 18 -17 15 -13 16 -12 3 4 -13 16 -21 21 -21
13z"/>
<path d="M2561 434 c0 -11 3 -14 6 -6 3 7 2 16 -1 19 -3 4 -6 -2 -5 -13z"/>
<path d="M1940 150 c-8 -5 -12 -11 -9 -14 3 -3 14 1 25 9 21 16 8 20 -16 5z"/>
<path d="M888 3013 c7 -3 16 -2 19 1 4 3 -2 6 -13 5 -11 0 -14 -3 -6 -6z"/>
<path d="M170 1804 c0 -8 5 -12 10 -9 6 3 10 10 10 16 0 5 -4 9 -10 9 -5 0
-10 -7 -10 -16z"/>
<path d="M210 1724 c0 -14 4 -34 10 -44 7 -13 5 -24 -10 -43 -53 -68 -73 -207
-29 -207 14 0 11 28 -3 32 -23 8 7 118 41 152 l30 29 37 -33 c21 -18 48 -54
60 -80 12 -26 32 -55 45 -64 28 -19 65 -21 72 -3 4 12 -15 36 -30 39 -18 2
-93 77 -93 91 0 43 50 30 85 -21 24 -36 31 -30 19 15 -4 16 -19 27 -46 35 -37
11 -42 10 -58 -9 l-17 -22 -37 38 c-28 28 -36 45 -36 73 0 23 -5 38 -16 42
-23 9 -24 8 -24 -20z m209 -228 c19 -20 21 -26 8 -26 -17 0 -42 21 -58 52 -9
17 -8 18 8 10 10 -6 29 -22 42 -36z"/>
<path d="M1025 1581 c-6 -11 9 -23 19 -14 9 9 7 23 -3 23 -6 0 -12 -4 -16 -9z"/>
<path d="M1130 1571 c-19 -6 -11 -8 30 -8 51 1 68 -5 164 -51 5 -3 6 0 2 7 -4
6 -3 11 3 11 5 0 11 -5 13 -12 4 -12 38 -21 38 -10 -1 17 -18 27 -50 30 -19 2
-49 9 -66 17 -40 19 -103 26 -134 16z"/>
<path d="M1070 1560 c0 -5 7 -10 15 -10 8 0 15 5 15 10 0 6 -7 10 -15 10 -8 0
-15 -4 -15 -10z"/>
<path d="M1385 1500 c-3 -11 -2 -28 4 -37 10 -17 10 -17 11 0 0 19 20 24 20 5
0 -10 2 -10 8 0 5 8 16 10 27 6 13 -5 16 -4 11 4 -4 7 -3 12 3 12 5 0 13 -10
17 -22 l7 -22 18 23 c11 14 23 20 31 15 9 -5 8 -2 -1 10 -14 17 -16 17 -28 -1
-13 -17 -15 -17 -32 6 -14 18 -20 21 -24 10 -5 -12 -7 -12 -15 0 -8 11 -11 11
-16 0 -5 -11 -7 -11 -12 -1 -8 18 -22 15 -29 -8z"/>
<path d="M207 1503 c-8 -7 11 -33 25 -33 5 0 6 5 3 10 -12 19 12 10 53 -19 33
-25 41 -27 46 -15 9 22 8 24 -8 18 -8 -3 -34 6 -59 20 -48 28 -50 29 -60 19z"/>
<path d="M1817 1484 c-9 -10 2 -24 19 -24 8 0 14 7 14 15 0 15 -21 21 -33 9z"/>
<path d="M1075 1450 c-3 -6 1 -7 9 -4 18 7 21 14 7 14 -6 0 -13 -4 -16 -10z"/>
<path d="M361 1419 c8 -16 14 -18 22 -10 9 9 8 14 -3 21 -24 16 -31 11 -19
-11z"/>
<path d="M236 1389 c10 -11 28 -26 39 -32 18 -9 19 -9 6 6 -17 21 -11 21 34 0
20 -9 34 -22 31 -29 -3 -7 2 -18 10 -25 12 -10 13 -9 8 5 -7 17 11 23 21 6 9
-14 25 -2 24 18 0 10 -3 12 -5 5 -8 -18 -34 -3 -34 19 0 16 -5 19 -21 15 -11
-3 -41 3 -66 14 -58 25 -71 24 -47 -2z"/>
<path d="M246 1301 c-3 -5 3 -20 14 -32 l19 -24 -6 23 c-3 12 -3 22 -1 22 17
0 68 -24 68 -31 0 -13 -14 -11 -29 4 -11 10 -11 8 -2 -10 7 -15 17 -20 31 -16
27 7 21 24 -16 44 -41 24 -71 31 -78 20z"/>
<path d="M3148 1285 c-3 -14 -1 -25 3 -25 5 0 9 11 9 25 0 14 -2 25 -4 25 -2
0 -6 -11 -8 -25z"/>
<path d="M3131 1240 c-9 -5 -4 -9 13 -12 14 -3 26 -2 26 2 0 12 -26 19 -39 10z"/>
<path d="M280 1193 c0 -14 20 -39 20 -25 0 6 8 12 18 12 14 0 15 2 2 10 -18
12 -40 13 -40 3z"/>
<path d="M370 1179 c0 -6 -7 -9 -15 -5 -13 5 -13 2 1 -19 18 -28 26 -32 18
-10 -4 8 -1 15 5 15 6 0 11 7 11 15 0 8 -4 15 -10 15 -5 0 -10 -5 -10 -11z"/>
<path d="M307 1113 c-4 -3 -2 -12 5 -20 6 -7 8 -16 5 -20 -8 -7 11 -33 25 -33
5 0 6 5 3 10 -8 13 16 13 49 0 52 -20 19 23 -41 54 -36 18 -37 18 -46 9z m59
-29 c17 -14 17 -15 1 -10 -10 3 -23 6 -28 6 -5 0 -9 5 -9 10 0 14 13 12 36 -6z"/>
<path d="M3074 1068 c-4 -5 -1 -14 7 -18 14 -9 29 -4 29 10 0 13 -29 20 -36 8z"/>
<path d="M3044 1009 c-8 -14 11 -33 25 -25 16 10 13 36 -3 36 -8 0 -18 -5 -22
-11z"/>
<path d="M400 999 c0 -5 -15 -9 -32 -9 l-33 -1 24 -19 c13 -11 28 -20 35 -20
6 0 4 4 -4 10 -21 13 -5 24 24 16 36 -9 40 -9 44 2 1 5 -11 15 -28 20 -18 7
-30 7 -30 1z"/>
<path d="M227 993 c-10 -10 -8 -52 3 -73 13 -24 54 -37 158 -50 48 -6 98 -13
110 -16 15 -3 21 -1 17 6 -3 5 -23 11 -43 11 -20 1 -28 3 -17 6 45 10 48 12
35 28 -7 8 -20 15 -29 14 -10 0 -11 -2 -3 -6 50 -20 -68 -39 -145 -23 -55 12
-87 38 -81 67 3 12 11 17 28 16 24 -3 24 -2 6 12 -22 17 -29 18 -39 8z"/>
<path d="M2921 814 c0 -11 3 -14 6 -6 3 7 2 16 -1 19 -3 4 -6 -2 -5 -13z"/>
<path d="M494 755 c-20 -49 -19 -52 26 -75 47 -24 97 -26 148 -5 l37 15 -43
-41 c-29 -28 -50 -39 -62 -36 -19 5 -19 4 -2 -18 12 -17 18 -19 20 -9 2 8 9
14 16 14 7 0 43 19 81 41 62 38 72 41 98 31 l30 -11 -22 23 -22 23 -67 -43
c-36 -24 -71 -44 -76 -44 -12 0 91 92 111 100 12 5 11 11 -6 30 -18 23 -20 23
-15 4 5 -17 -3 -27 -43 -49 -42 -23 -55 -26 -104 -21 -31 3 -63 8 -72 12 -21
8 -23 72 -3 80 22 8 56 -14 56 -37 0 -16 -4 -19 -22 -14 -18 6 -20 4 -12 -5
20 -20 49 -7 46 20 -4 34 -21 50 -54 50 -24 0 -32 -6 -44 -35z"/>
<path d="M693 566 c-28 -24 -28 -25 -9 -43 19 -17 19 -17 6 1 -13 16 -12 20 5
32 22 16 35 18 35 4 0 -5 -4 -10 -10 -10 -5 0 -10 -7 -10 -15 0 -20 13 -19 41
3 14 12 20 25 16 35 -9 24 -41 21 -74 -7z m60 8 c7 -7 -2 -34 -12 -34 -4 0 -7
9 -7 20 0 20 7 25 19 14z"/>
<path d="M794 519 c-4 -8 -3 -9 4 -5 7 4 12 3 12 -3 0 -13 -55 -42 -64 -34 -3
4 -6 1 -6 -5 0 -16 7 -15 52 6 21 9 37 23 35 31 -3 19 -23 25 -33 10z"/>
<path d="M840 497 c0 -7 -16 -21 -35 -31 -39 -21 -45 -36 -15 -36 11 0 20 6
20 14 0 7 11 21 25 30 25 17 33 36 15 36 -5 0 -10 -6 -10 -13z"/>
<path d="M905 471 c-3 -11 -14 -22 -23 -24 -16 -4 -16 -5 1 -6 21 -1 22 -24 2
-41 -18 -15 -38 -3 -30 19 5 12 4 13 -6 4 -17 -17 6 -43 38 -43 22 0 24 4 21
37 -2 22 2 38 10 41 14 4 17 32 3 32 -5 0 -12 -9 -16 -19z"/>
<path d="M976 411 c-4 -5 0 -12 6 -15 7 -3 4 -4 -8 -1 -25 6 -49 -18 -40 -40
6 -17 34 -19 56 -5 11 7 6 8 -17 4 -26 -5 -33 -3 -33 10 0 11 9 16 30 16 19 0
33 7 40 20 9 17 8 20 -9 20 -11 0 -22 -4 -25 -9z"/>
<path d="M1044 368 c-5 -8 -2 -9 9 -5 30 11 19 -22 -13 -42 -16 -10 -27 -21
-23 -25 4 -3 22 8 40 26 38 37 53 33 22 -6 -23 -29 -20 -42 6 -32 9 3 13 11
10 16 -4 6 0 22 9 35 21 32 20 38 -3 30 -11 -3 -22 -1 -26 5 -8 13 -22 13 -31
-2z"/>
<path d="M1171 330 c-18 -15 -19 -20 -7 -20 19 0 21 -21 4 -38 -17 -17 -28
-15 -28 5 0 13 -3 14 -12 5 -17 -17 3 -35 33 -30 18 2 25 10 27 33 2 17 8 34
13 40 11 11 12 25 2 25 -5 -1 -19 -10 -32 -20z"/>
<path d="M1246 289 c-30 -35 -31 -39 -13 -63 13 -17 15 -17 45 -2 18 9 32 19
32 22 0 2 -9 0 -19 -6 -31 -16 -51 -12 -51 10 0 11 3 19 8 18 19 -5 52 15 52
33 0 28 -25 23 -54 -12z"/>
</g>
</svg>
