<?xml version="1.0" standalone="no"?>
<!DOCTYPE svg PUBLIC "-//W3C//DTD SVG 20010904//EN"
 "http://www.w3.org/TR/2001/REC-SVG-20010904/DTD/svg10.dtd">
<svg version="1.0" xmlns="http://www.w3.org/2000/svg"
 width="100.000000pt" height="100.000000pt" viewBox="0 0 100.000000 100.000000"
 preserveAspectRatio="xMidYMid meet">

<g transform="translate(0.000000,100.000000) scale(0.100000,-0.100000)"
fill="#000000" stroke="none">
<path d="M595 816 c22 -25 41 -44 43 -41 7 7 -38 64 -60 76 -14 8 -8 -4 17
-35z"/>
<path d="M210 820 c-9 -6 -10 -10 -3 -10 6 0 15 5 18 10 8 12 4 12 -15 0z"/>
<path d="M433 668 c0 -35 -8 -80 -17 -100 -21 -49 -20 -55 4 -33 11 10 20 26
20 36 0 10 4 20 10 24 5 3 7 12 3 20 -3 8 0 15 6 15 13 0 6 40 -14 78 -10 20
-11 15 -12 -40z"/>
<path d="M160 691 c0 -5 6 -14 14 -20 12 -10 13 -8 9 8 -5 21 -23 30 -23 12z"/>
<path d="M131 646 c-1 -29 2 -37 10 -29 8 8 8 19 1 40 -10 28 -10 28 -11 -11z"/>
<path d="M290 663 c0 -5 9 -18 20 -28 11 -10 20 -14 20 -8 0 5 -9 18 -20 28
-11 10 -20 14 -20 8z"/>
<path d="M588 634 l-4 -29 -11 25 c-11 23 -11 20 -10 -22 1 -35 -5 -55 -21
-78 -25 -33 -16 -42 12 -11 25 28 56 115 46 131 -6 10 -9 5 -12 -16z"/>
<path d="M650 629 c0 -25 3 -29 13 -20 8 6 17 8 20 4 4 -3 7 -3 7 0 0 4 -9 16
-20 27 l-20 20 0 -31z"/>
<path d="M350 620 c0 -5 5 -10 11 -10 5 0 7 5 4 10 -3 6 -8 10 -11 10 -2 0 -4
-4 -4 -10z"/>
<path d="M253 582 c27 -29 28 -30 23 -130 -3 -81 -2 -99 8 -89 7 6 11 19 8 29
-8 33 7 65 38 78 17 7 33 17 36 22 4 6 -3 5 -14 -1 -38 -20 -52 -14 -52 24 0
41 17 47 22 8 l3 -27 34 42 34 43 -36 -6 c-25 -5 -48 -1 -83 15 l-49 21 28
-29z"/>
<path d="M482 564 c-1 -5 -16 -25 -33 -42 -17 -18 -27 -32 -22 -32 5 0 14 5
21 12 19 19 27 0 14 -34 -6 -18 -10 -34 -7 -36 2 -3 9 7 14 22 11 27 25 33 36
15 4 -6 -3 -21 -16 -35 -19 -20 -20 -24 -6 -24 9 0 17 4 17 10 0 5 11 12 24
16 14 3 27 12 29 19 3 7 26 16 52 19 40 6 45 9 34 23 -11 12 -10 17 4 28 17
12 23 35 10 35 -5 0 -20 -16 -36 -35 -18 -22 -39 -36 -62 -41 -45 -8 -63 7
-68 54 -2 20 -4 32 -5 26z"/>
<path d="M556 436 c-16 -13 -26 -29 -22 -35 8 -13 -74 -66 -126 -83 -21 -6
-38 -15 -38 -19 0 -5 9 -24 20 -44 27 -48 25 -74 -10 -148 -18 -39 -27 -71
-23 -85 5 -22 6 -22 239 -22 129 0 234 4 234 9 0 42 -81 187 -175 312 -45 59
-60 93 -56 122 3 23 -8 21 -43 -7z"/>
<path d="M145 430 c3 -5 8 -10 11 -10 2 0 4 5 4 10 0 6 -5 10 -11 10 -5 0 -7
-4 -4 -10z"/>
<path d="M348 397 c-34 -13 -34 -16 2 -45 l28 -22 12 34 c6 19 19 37 28 39 9
3 4 5 -13 5 -16 0 -42 -5 -57 -11z"/>
<path d="M151 373 c-1 -12 4 -25 9 -28 12 -7 12 2 0 30 -8 19 -9 19 -9 -2z"/>
</g>
</svg>
